<svg width="32" height="32" viewBox="0 0 32 32" fill="none" xmlns="http://www.w3.org/2000/svg">
<path d="M0.602951 25.9133C7.58988 32.9028 18.9187 32.9028 25.9048 25.9142C32.8917 18.9238 32.8917 7.59163 25.9048 0.601318H25.9039L0.602951 25.9133Z" fill="#E6EE9C"/>
<path d="M23.4938 23.5033C29.1503 17.8443 29.1503 8.67129 23.4938 3.01318L3.01221 23.5033C8.66862 29.1622 17.8391 29.1622 23.4938 23.5033Z" fill="#FF1744"/>
<path d="M20.784 18.9102C21.006 19.1533 21.1258 19.4727 21.1184 19.8019C21.1109 20.131 20.9769 20.4447 20.744 20.6775C20.5112 20.9103 20.1976 21.0444 19.8684 21.0518C19.5393 21.0593 19.2199 20.9395 18.9768 20.7174C18.4774 20.218 18.0724 18.005 18.0724 18.005C18.0724 18.005 20.2846 18.41 20.784 18.9102ZM22.4454 14.3595C22.7703 14.4277 23.0559 14.6197 23.2418 14.8948C23.4277 15.1699 23.4993 15.5065 23.4414 15.8334C23.3835 16.1603 23.2008 16.4519 22.9317 16.6464C22.6627 16.8409 22.3285 16.9232 22 16.8757C21.3052 16.7536 19.3911 15.1174 19.3911 15.1174C19.3911 15.1174 21.7515 14.2357 22.4454 14.3595ZM22.0951 9.56288C22.2607 9.5362 22.43 9.54243 22.5932 9.5812C22.7564 9.61997 22.9103 9.69052 23.0463 9.78883C23.1822 9.88713 23.2974 10.0113 23.3853 10.1541C23.4733 10.297 23.5322 10.4558 23.5587 10.6214C23.5857 10.7871 23.5797 10.9565 23.5411 11.1199C23.5025 11.2833 23.432 11.4374 23.3336 11.5735C23.2353 11.7096 23.111 11.8249 22.968 11.9128C22.825 12.0007 22.666 12.0595 22.5002 12.0858C21.8037 12.1978 19.5107 11.2732 19.5107 11.2732C19.5107 11.2732 21.3987 9.67403 22.0951 9.56288ZM14.4429 22.3654C14.5019 22.6992 14.6909 22.9959 14.9685 23.1904C15.246 23.385 15.5895 23.4614 15.9233 23.4029C16.0887 23.3735 16.2466 23.3118 16.3881 23.2214C16.5297 23.131 16.652 23.0136 16.7481 22.8758C16.8442 22.7381 16.9122 22.5828 16.9483 22.4188C16.9844 22.2548 16.9878 22.0853 16.9583 21.9199C16.8353 21.2252 15.2 19.3111 15.2 19.3111C15.2 19.3111 14.32 21.6707 14.4429 22.3654ZM9.57472 22.0151C9.53221 22.3445 9.61958 22.6775 9.81831 22.9436C10.0171 23.2097 10.3116 23.388 10.6395 23.4408C10.9674 23.4935 11.303 23.4166 11.5751 23.2262C11.8473 23.0359 12.0347 22.7471 12.0977 22.421C12.2097 21.7254 11.285 19.4298 11.285 19.4298C11.285 19.4298 9.68672 21.3178 9.57472 22.0151Z" fill="#5D4037"/>
<path d="M13.2539 32C8.45388 32 3.65473 30.1718 0 26.5154L1.20505 25.3112C7.84925 31.9562 18.6576 31.9571 25.3027 25.312C28.5229 22.0893 30.298 17.808 30.2972 13.2589C30.303 11.0193 29.8645 8.80065 29.007 6.73158C28.1496 4.66251 26.8902 2.78409 25.3018 1.20505L26.5061 0C28.2531 1.73695 29.6382 3.8032 30.5812 6.07912C31.5243 8.35503 32.0065 10.7954 31.9999 13.2589C32.0016 18.2636 30.0496 22.9735 26.5069 26.5171C22.8538 30.1718 18.053 32 13.2539 32Z" fill="#558B2F"/>
</svg>
